<svg id="Group_7" data-name="Group 7" xmlns="http://www.w3.org/2000/svg" width="532.786" height="590.061" viewBox="0 0 532.786 590.061">
  <g id="Group_5" data-name="Group 5">
    <g id="Group_1" data-name="Group 1">
      <g id="Union_1" data-name="Union 1" transform="translate(-18 -78.983)" fill="none">
        <path d="M197.786,200.543l-48.27-83.6a25,25,0,0,1,21.615-37.5l96.775-.137a25,25,0,0,1,21.668,37.531L241.07,200.574a25,25,0,0,1-43.284-.031ZM43.231,212.982a25,25,0,0,1-21.668-37.469l48.27-83.878a25,25,0,0,1,43.336,0l48.27,83.878a25,25,0,0,1-21.668,37.469Z" stroke="none"/>
        <path d="M 219.4368591308594 208.0438385009766 C 222.8647766113281 208.0437927246094 226.2337036132813 207.1820831298828 229.1794128417969 205.5518798828125 C 232.3325805664063 203.8068389892578 234.8772888183594 201.2888793945313 236.7429046630859 198.0678863525391 L 285.2483520507813 114.327507019043 C 287.1185302734375 111.0986328125 288.03662109375 107.6305084228516 287.9771118164063 104.0194625854492 C 287.9215698242188 100.6466293334961 286.9854431152344 97.29075622558594 285.2699584960938 94.31471252441406 C 283.5544128417969 91.33850860595703 281.1195373535156 88.84629821777344 278.2285766601563 87.10750579833984 C 275.1340026855469 85.24629974365234 271.6737365722656 84.30255126953125 267.9439392089844 84.30255126953125 L 267.9334106445313 84.30255126953125 L 267.9136962890625 84.30258941650391 L 171.1384124755859 84.43942260742188 C 167.4137420654297 84.44463348388672 163.9587860107422 85.39075469970703 160.8695373535156 87.25150299072266 C 157.9834136962891 88.98983764648438 155.5523681640625 91.47967529296875 153.8392333984375 94.45175933837891 C 152.1261596679688 97.42379760742188 151.1902008056641 100.7752151489258 151.132568359375 104.1437149047852 C 151.0708618164063 107.7494201660156 151.9838714599609 111.2131271362305 153.8462371826172 114.4387588500977 L 202.1159973144531 198.04345703125 C 203.9797821044922 201.2717590332031 206.5252838134766 203.7957611083984 209.6817779541016 205.5453796386719 C 212.6306915283203 207.1799163818359 216.0039520263672 208.0438842773438 219.4368591308594 208.0438385009766 M 139.7691192626953 207.9822998046875 C 143.4940338134766 207.9822998046875 146.9504852294922 207.0410003662109 150.0424957275391 205.1846313476563 C 152.9310760498047 203.4503326416016 155.3656616210938 200.9639282226563 157.0829467773438 197.9942626953125 C 158.8001556396484 195.0247192382813 159.7407836914063 191.6746673583984 159.8031616210938 188.3062591552734 C 159.8698577880859 184.7007141113281 158.9617004394531 181.2357177734375 157.1038665771484 178.0074157714844 L 108.8340759277344 94.12908935546875 C 106.9720764160156 90.89329528808594 104.4258651733398 88.36329650878906 101.2661972045898 86.60946655273438 C 98.31482696533203 84.97117614746094 94.93778228759766 84.10525512695313 91.50019836425781 84.10525512695313 C 88.06257629394531 84.10525512695313 84.68549346923828 84.97121429443359 81.73399353027344 86.60946655273438 C 78.57415771484375 88.36338043212891 76.02774047851563 90.89342498779297 74.16553497314453 94.12921142578125 L 25.89590644836426 178.0072937011719 C 24.03815650939941 181.2356719970703 23.1301155090332 184.7008361816406 23.19694900512695 188.3065490722656 C 23.25940704345703 191.6751251220703 24.20015716552734 195.0252990722656 25.91749000549316 197.9948883056641 C 27.63478088378906 200.9644165039063 30.06924057006836 203.4506683349609 32.95769882202148 205.1848449707031 C 36.04953002929688 207.0410919189453 39.50582504272461 207.9822998046875 43.23061370849609 207.9822998046875 L 139.7691192626953 207.9822998046875 M 219.4369506835938 213.0438385009766 C 211.0164947509766 213.0439605712891 202.5966949462891 208.8762969970703 197.7858276367188 200.5434265136719 L 149.51611328125 116.9387969970703 C 139.9014129638672 100.2860870361328 151.9029083251953 79.46642303466797 171.1314086914063 79.43942260742188 L 267.9066162109375 79.30258941650391 C 267.9183654785156 79.30257415771484 267.9322204589844 79.30256652832031 267.9439697265625 79.30256652832031 C 287.1995849609375 79.30256652832031 299.2306213378906 100.1631011962891 289.5750427246094 116.8335037231445 L 241.0694885253906 200.5740051269531 C 236.2539825439453 208.8879699707031 227.8451080322266 213.0437164306641 219.4369506835938 213.0438385009766 Z M 139.7691192626953 212.9822998046875 L 43.23061370849609 212.9822998046875 C 24.00119781494141 212.9822998046875 11.97182273864746 192.1797180175781 21.56219863891602 175.5135040283203 L 69.8319091796875 91.63529968261719 C 74.63925933837891 83.28194427490234 83.06977844238281 79.10526275634766 91.50019073486328 79.10526275634766 C 99.93059539794922 79.10526275634766 108.3608856201172 83.28194427490234 113.1677780151367 91.63529968261719 L 161.4374847412109 175.5135040283203 C 171.0288238525391 192.1797180175781 158.9984893798828 212.9822998046875 139.7691192626953 212.9822998046875 Z" stroke="none" fill="#fff"/>
      </g>
    </g>
    <g id="Group_2" data-name="Group 2" transform="translate(274.979 286.184) rotate(180)">
      <g id="Union_1-2" data-name="Union 1" transform="translate(-18 -78.983)" fill="none">
        <path d="M197.786,200.543l-48.27-83.6a25,25,0,0,1,21.615-37.5l96.775-.137a25,25,0,0,1,21.668,37.531L241.07,200.574a25,25,0,0,1-43.284-.031ZM43.231,212.982a25,25,0,0,1-21.668-37.469l48.27-83.878a25,25,0,0,1,43.336,0l48.27,83.878a25,25,0,0,1-21.668,37.469Z" stroke="none"/>
        <path d="M 219.4368591308594 208.0438385009766 C 222.8647766113281 208.0437927246094 226.2337036132813 207.1820831298828 229.1794128417969 205.5518798828125 C 232.3325805664063 203.8068389892578 234.8772888183594 201.2888793945313 236.7429046630859 198.0678863525391 L 285.2483520507813 114.327507019043 C 287.1185302734375 111.0986328125 288.03662109375 107.6305084228516 287.9771118164063 104.0194625854492 C 287.9215698242188 100.6466293334961 286.9854431152344 97.29075622558594 285.2699584960938 94.31471252441406 C 283.5544128417969 91.33850860595703 281.1195373535156 88.84629821777344 278.2285766601563 87.10750579833984 C 275.1340026855469 85.24629974365234 271.6737365722656 84.30255126953125 267.9439392089844 84.30255126953125 L 267.9334106445313 84.30255126953125 L 267.9136962890625 84.30258941650391 L 171.1384124755859 84.43942260742188 C 167.4137420654297 84.44463348388672 163.9587860107422 85.39075469970703 160.8695373535156 87.25150299072266 C 157.9834136962891 88.98983764648438 155.5523681640625 91.47967529296875 153.8392333984375 94.45175933837891 C 152.1261596679688 97.42379760742188 151.1902008056641 100.7752151489258 151.132568359375 104.1437149047852 C 151.0708618164063 107.7494201660156 151.9838714599609 111.2131271362305 153.8462371826172 114.4387588500977 L 202.1159973144531 198.04345703125 C 203.9797821044922 201.2717590332031 206.5252838134766 203.7957611083984 209.6817779541016 205.5453796386719 C 212.6306915283203 207.1799163818359 216.0039520263672 208.0438842773438 219.4368591308594 208.0438385009766 M 139.7691192626953 207.9822998046875 C 143.4940338134766 207.9822998046875 146.9504852294922 207.0410003662109 150.0424957275391 205.1846313476563 C 152.9310760498047 203.4503326416016 155.3656616210938 200.9639282226563 157.0829467773438 197.9942626953125 C 158.8001556396484 195.0247192382813 159.7407836914063 191.6746673583984 159.8031616210938 188.3062591552734 C 159.8698577880859 184.7007141113281 158.9617004394531 181.2357177734375 157.1038665771484 178.0074157714844 L 108.8340759277344 94.12908935546875 C 106.9720764160156 90.89329528808594 104.4258651733398 88.36329650878906 101.2661972045898 86.60946655273438 C 98.31482696533203 84.97117614746094 94.93778228759766 84.10525512695313 91.50019836425781 84.10525512695313 C 88.06257629394531 84.10525512695313 84.68549346923828 84.97121429443359 81.73399353027344 86.60946655273438 C 78.57415771484375 88.36338043212891 76.02774047851563 90.89342498779297 74.16553497314453 94.12921142578125 L 25.89590644836426 178.0072937011719 C 24.03815650939941 181.2356719970703 23.1301155090332 184.7008361816406 23.19694900512695 188.3065490722656 C 23.25940704345703 191.6751251220703 24.20015716552734 195.0252990722656 25.91749000549316 197.9948883056641 C 27.63478088378906 200.9644165039063 30.06924057006836 203.4506683349609 32.95769882202148 205.1848449707031 C 36.04953002929688 207.0410919189453 39.50582504272461 207.9822998046875 43.23061370849609 207.9822998046875 L 139.7691192626953 207.9822998046875 M 219.4369506835938 213.0438385009766 C 211.0164947509766 213.0439605712891 202.5966949462891 208.8762969970703 197.7858276367188 200.5434265136719 L 149.51611328125 116.9387969970703 C 139.9014129638672 100.2860870361328 151.9029083251953 79.46642303466797 171.1314086914063 79.43942260742188 L 267.9066162109375 79.30258941650391 C 267.9183654785156 79.30257415771484 267.9322204589844 79.30256652832031 267.9439697265625 79.30256652832031 C 287.1995849609375 79.30256652832031 299.2306213378906 100.1631011962891 289.5750427246094 116.8335037231445 L 241.0694885253906 200.5740051269531 C 236.2539825439453 208.8879699707031 227.8451080322266 213.0437164306641 219.4369506835938 213.0438385009766 Z M 139.7691192626953 212.9822998046875 L 43.23061370849609 212.9822998046875 C 24.00119781494141 212.9822998046875 11.97182273864746 192.1797180175781 21.56219863891602 175.5135040283203 L 69.8319091796875 91.63529968261719 C 74.63925933837891 83.28194427490234 83.06977844238281 79.10526275634766 91.50019073486328 79.10526275634766 C 99.93059539794922 79.10526275634766 108.3608856201172 83.28194427490234 113.1677780151367 91.63529968261719 L 161.4374847412109 175.5135040283203 C 171.0288238525391 192.1797180175781 158.9984893798828 212.9822998046875 139.7691192626953 212.9822998046875 Z" stroke="none" fill="#fff"/>
      </g>
    </g>
    <g id="Group_4" data-name="Group 4" transform="translate(532.979 286.184) rotate(180)">
      <g id="Union_1-3" data-name="Union 1" transform="translate(-18 -78.983)" fill="none">
        <path d="M197.786,200.543l-48.27-83.6a25,25,0,0,1,21.615-37.5l96.775-.137a25,25,0,0,1,21.668,37.531L241.07,200.574a25,25,0,0,1-43.284-.031ZM43.231,212.982a25,25,0,0,1-21.668-37.469l48.27-83.878a25,25,0,0,1,43.336,0l48.27,83.878a25,25,0,0,1-21.668,37.469Z" stroke="none"/>
        <path d="M 219.4368591308594 208.0438385009766 C 222.8647766113281 208.0437927246094 226.2337036132813 207.1820831298828 229.1794128417969 205.5518798828125 C 232.3325805664063 203.8068389892578 234.8772888183594 201.2888793945313 236.7429046630859 198.0678863525391 L 285.2483520507813 114.327507019043 C 287.1185302734375 111.0986328125 288.03662109375 107.6305084228516 287.9771118164063 104.0194625854492 C 287.9215698242188 100.6466293334961 286.9854431152344 97.29075622558594 285.2699584960938 94.31471252441406 C 283.5544128417969 91.33850860595703 281.1195373535156 88.84629821777344 278.2285766601563 87.10750579833984 C 275.1340026855469 85.24629974365234 271.6737365722656 84.30255126953125 267.9439392089844 84.30255126953125 L 267.9334106445313 84.30255126953125 L 267.9136962890625 84.30258941650391 L 171.1384124755859 84.43942260742188 C 167.4137420654297 84.44463348388672 163.9587860107422 85.39075469970703 160.8695373535156 87.25150299072266 C 157.9834136962891 88.98983764648438 155.5523681640625 91.47967529296875 153.8392333984375 94.45175933837891 C 152.1261596679688 97.42379760742188 151.1902008056641 100.7752151489258 151.132568359375 104.1437149047852 C 151.0708618164063 107.7494201660156 151.9838714599609 111.2131271362305 153.8462371826172 114.4387588500977 L 202.1159973144531 198.04345703125 C 203.9797821044922 201.2717590332031 206.5252838134766 203.7957611083984 209.6817779541016 205.5453796386719 C 212.6306915283203 207.1799163818359 216.0039520263672 208.0438842773438 219.4368591308594 208.0438385009766 M 139.7691192626953 207.9822998046875 C 143.4940338134766 207.9822998046875 146.9504852294922 207.0410003662109 150.0424957275391 205.1846313476563 C 152.9310760498047 203.4503326416016 155.3656616210938 200.9639282226563 157.0829467773438 197.9942626953125 C 158.8001556396484 195.0247192382813 159.7407836914063 191.6746673583984 159.8031616210938 188.3062591552734 C 159.8698577880859 184.7007141113281 158.9617004394531 181.2357177734375 157.1038665771484 178.0074157714844 L 108.8340759277344 94.12908935546875 C 106.9720764160156 90.89329528808594 104.4258651733398 88.36329650878906 101.2661972045898 86.60946655273438 C 98.31482696533203 84.97117614746094 94.93778228759766 84.10525512695313 91.50019836425781 84.10525512695313 C 88.06257629394531 84.10525512695313 84.68549346923828 84.97121429443359 81.73399353027344 86.60946655273438 C 78.57415771484375 88.36338043212891 76.02774047851563 90.89342498779297 74.16553497314453 94.12921142578125 L 25.89590644836426 178.0072937011719 C 24.03815650939941 181.2356719970703 23.1301155090332 184.7008361816406 23.19694900512695 188.3065490722656 C 23.25940704345703 191.6751251220703 24.20015716552734 195.0252990722656 25.91749000549316 197.9948883056641 C 27.63478088378906 200.9644165039063 30.06924057006836 203.4506683349609 32.95769882202148 205.1848449707031 C 36.04953002929688 207.0410919189453 39.50582504272461 207.9822998046875 43.23061370849609 207.9822998046875 L 139.7691192626953 207.9822998046875 M 219.4369506835938 213.0438385009766 C 211.0164947509766 213.0439605712891 202.5966949462891 208.8762969970703 197.7858276367188 200.5434265136719 L 149.51611328125 116.9387969970703 C 139.9014129638672 100.2860870361328 151.9029083251953 79.46642303466797 171.1314086914063 79.43942260742188 L 267.9066162109375 79.30258941650391 C 267.9183654785156 79.30257415771484 267.9322204589844 79.30256652832031 267.9439697265625 79.30256652832031 C 287.1995849609375 79.30256652832031 299.2306213378906 100.1631011962891 289.5750427246094 116.8335037231445 L 241.0694885253906 200.5740051269531 C 236.2539825439453 208.8879699707031 227.8451080322266 213.0437164306641 219.4369506835938 213.0438385009766 Z M 139.7691192626953 212.9822998046875 L 43.23061370849609 212.9822998046875 C 24.00119781494141 212.9822998046875 11.97182273864746 192.1797180175781 21.56219863891602 175.5135040283203 L 69.8319091796875 91.63529968261719 C 74.63925933837891 83.28194427490234 83.06977844238281 79.10526275634766 91.50019073486328 79.10526275634766 C 99.93059539794922 79.10526275634766 108.3608856201172 83.28194427490234 113.1677780151367 91.63529968261719 L 161.4374847412109 175.5135040283203 C 171.0288238525391 192.1797180175781 158.9984893798828 212.9822998046875 139.7691192626953 212.9822998046875 Z" stroke="none" fill="#fff"/>
      </g>
    </g>
    <g id="Group_3" data-name="Group 3" transform="translate(532.979 134.061) rotate(180)">
      <g id="Union_1-4" data-name="Union 1" transform="translate(-18 -78.983)" fill="none">
        <path d="M197.786,200.543l-48.27-83.6a25,25,0,0,1,21.615-37.5l96.775-.137a25,25,0,0,1,21.668,37.531L241.07,200.574a25,25,0,0,1-43.284-.031ZM43.231,212.982a25,25,0,0,1-21.668-37.469l48.27-83.878a25,25,0,0,1,43.336,0l48.27,83.878a25,25,0,0,1-21.668,37.469Z" stroke="none"/>
        <path d="M 219.4368591308594 208.0438385009766 C 222.8647766113281 208.0437927246094 226.2337036132813 207.1820831298828 229.1794128417969 205.5518798828125 C 232.3325805664063 203.8068389892578 234.8772888183594 201.2888793945313 236.7429046630859 198.0678863525391 L 285.2483520507813 114.327507019043 C 287.1185302734375 111.0986328125 288.03662109375 107.6305084228516 287.9771118164063 104.0194625854492 C 287.9215698242188 100.6466293334961 286.9854431152344 97.29075622558594 285.2699584960938 94.31471252441406 C 283.5544128417969 91.33850860595703 281.1195373535156 88.84629821777344 278.2285766601563 87.10750579833984 C 275.1340026855469 85.24629974365234 271.6737365722656 84.30255126953125 267.9439392089844 84.30255126953125 L 267.9334106445313 84.30255126953125 L 267.9136962890625 84.30258941650391 L 171.1384124755859 84.43942260742188 C 167.4137420654297 84.44463348388672 163.9587860107422 85.39075469970703 160.8695373535156 87.25150299072266 C 157.9834136962891 88.98983764648438 155.5523681640625 91.47967529296875 153.8392333984375 94.45175933837891 C 152.1261596679688 97.42379760742188 151.1902008056641 100.7752151489258 151.132568359375 104.1437149047852 C 151.0708618164063 107.7494201660156 151.9838714599609 111.2131271362305 153.8462371826172 114.4387588500977 L 202.1159973144531 198.04345703125 C 203.9797821044922 201.2717590332031 206.5252838134766 203.7957611083984 209.6817779541016 205.5453796386719 C 212.6306915283203 207.1799163818359 216.0039520263672 208.0438842773438 219.4368591308594 208.0438385009766 M 139.7691192626953 207.9822998046875 C 143.4940338134766 207.9822998046875 146.9504852294922 207.0410003662109 150.0424957275391 205.1846313476563 C 152.9310760498047 203.4503326416016 155.3656616210938 200.9639282226563 157.0829467773438 197.9942626953125 C 158.8001556396484 195.0247192382813 159.7407836914063 191.6746673583984 159.8031616210938 188.3062591552734 C 159.8698577880859 184.7007141113281 158.9617004394531 181.2357177734375 157.1038665771484 178.0074157714844 L 108.8340759277344 94.12908935546875 C 106.9720764160156 90.89329528808594 104.4258651733398 88.36329650878906 101.2661972045898 86.60946655273438 C 98.31482696533203 84.97117614746094 94.93778228759766 84.10525512695313 91.50019836425781 84.10525512695313 C 88.06257629394531 84.10525512695313 84.68549346923828 84.97121429443359 81.73399353027344 86.60946655273438 C 78.57415771484375 88.36338043212891 76.02774047851563 90.89342498779297 74.16553497314453 94.12921142578125 L 25.89590644836426 178.0072937011719 C 24.03815650939941 181.2356719970703 23.1301155090332 184.7008361816406 23.19694900512695 188.3065490722656 C 23.25940704345703 191.6751251220703 24.20015716552734 195.0252990722656 25.91749000549316 197.9948883056641 C 27.63478088378906 200.9644165039063 30.06924057006836 203.4506683349609 32.95769882202148 205.1848449707031 C 36.04953002929688 207.0410919189453 39.50582504272461 207.9822998046875 43.23061370849609 207.9822998046875 L 139.7691192626953 207.9822998046875 M 219.4369506835938 213.0438385009766 C 211.0164947509766 213.0439605712891 202.5966949462891 208.8762969970703 197.7858276367188 200.5434265136719 L 149.51611328125 116.9387969970703 C 139.9014129638672 100.2860870361328 151.9029083251953 79.46642303466797 171.1314086914063 79.43942260742188 L 267.9066162109375 79.30258941650391 C 267.9183654785156 79.30257415771484 267.9322204589844 79.30256652832031 267.9439697265625 79.30256652832031 C 287.1995849609375 79.30256652832031 299.2306213378906 100.1631011962891 289.5750427246094 116.8335037231445 L 241.0694885253906 200.5740051269531 C 236.2539825439453 208.8879699707031 227.8451080322266 213.0437164306641 219.4369506835938 213.0438385009766 Z M 139.7691192626953 212.9822998046875 L 43.23061370849609 212.9822998046875 C 24.00119781494141 212.9822998046875 11.97182273864746 192.1797180175781 21.56219863891602 175.5135040283203 L 69.8319091796875 91.63529968261719 C 74.63925933837891 83.28194427490234 83.06977844238281 79.10526275634766 91.50019073486328 79.10526275634766 C 99.93059539794922 79.10526275634766 108.3608856201172 83.28194427490234 113.1677780151367 91.63529968261719 L 161.4374847412109 175.5135040283203 C 171.0288238525391 192.1797180175781 158.9984893798828 212.9822998046875 139.7691192626953 212.9822998046875 Z" stroke="none" fill="#fff"/>
      </g>
    </g>
  </g>
  <g id="Group_6" data-name="Group 6" transform="translate(0 304)">
    <g id="Group_1-2" data-name="Group 1">
      <g id="Union_1-5" data-name="Union 1" transform="translate(-18 -78.983)" fill="none">
        <path d="M197.786,200.543l-48.27-83.6a25,25,0,0,1,21.615-37.5l96.775-.137a25,25,0,0,1,21.668,37.531L241.07,200.574a25,25,0,0,1-43.284-.031ZM43.231,212.982a25,25,0,0,1-21.668-37.469l48.27-83.878a25,25,0,0,1,43.336,0l48.27,83.878a25,25,0,0,1-21.668,37.469Z" stroke="none"/>
        <path d="M 219.4368591308594 208.0438385009766 C 222.8647766113281 208.0437927246094 226.2337036132813 207.1820831298828 229.1794128417969 205.5518798828125 C 232.3325805664063 203.8068389892578 234.8772888183594 201.2888793945313 236.7429046630859 198.0678863525391 L 285.2483520507813 114.327507019043 C 287.1185302734375 111.0986328125 288.03662109375 107.6305084228516 287.9771118164063 104.0194625854492 C 287.9215698242188 100.6466293334961 286.9854431152344 97.29075622558594 285.2699584960938 94.31471252441406 C 283.5544128417969 91.33850860595703 281.1195373535156 88.84629821777344 278.2285766601563 87.10750579833984 C 275.1340026855469 85.24629974365234 271.6737365722656 84.30255126953125 267.9439392089844 84.30255126953125 L 267.9334106445313 84.30255126953125 L 267.9136962890625 84.30258941650391 L 171.1384124755859 84.43942260742188 C 167.4137420654297 84.44463348388672 163.9587860107422 85.39075469970703 160.8695373535156 87.25150299072266 C 157.9834136962891 88.98983764648438 155.5523681640625 91.47967529296875 153.8392333984375 94.45175933837891 C 152.1261596679688 97.42379760742188 151.1902008056641 100.7752151489258 151.132568359375 104.1437149047852 C 151.0708618164063 107.7494201660156 151.9838714599609 111.2131271362305 153.8462371826172 114.4387588500977 L 202.1159973144531 198.04345703125 C 203.9797821044922 201.2717590332031 206.5252838134766 203.7957611083984 209.6817779541016 205.5453796386719 C 212.6306915283203 207.1799163818359 216.0039520263672 208.0438842773438 219.4368591308594 208.0438385009766 M 139.7691192626953 207.9822998046875 C 143.4940338134766 207.9822998046875 146.9504852294922 207.0410003662109 150.0424957275391 205.1846313476563 C 152.9310760498047 203.4503326416016 155.3656616210938 200.9639282226563 157.0829467773438 197.9942626953125 C 158.8001556396484 195.0247192382813 159.7407836914063 191.6746673583984 159.8031616210938 188.3062591552734 C 159.8698577880859 184.7007141113281 158.9617004394531 181.2357177734375 157.1038665771484 178.0074157714844 L 108.8340759277344 94.12908935546875 C 106.9720764160156 90.89329528808594 104.4258651733398 88.36329650878906 101.2661972045898 86.60946655273438 C 98.31482696533203 84.97117614746094 94.93778228759766 84.10525512695313 91.50019836425781 84.10525512695313 C 88.06257629394531 84.10525512695313 84.68549346923828 84.97121429443359 81.73399353027344 86.60946655273438 C 78.57415771484375 88.36338043212891 76.02774047851563 90.89342498779297 74.16553497314453 94.12921142578125 L 25.89590644836426 178.0072937011719 C 24.03815650939941 181.2356719970703 23.1301155090332 184.7008361816406 23.19694900512695 188.3065490722656 C 23.25940704345703 191.6751251220703 24.20015716552734 195.0252990722656 25.91749000549316 197.9948883056641 C 27.63478088378906 200.9644165039063 30.06924057006836 203.4506683349609 32.95769882202148 205.1848449707031 C 36.04953002929688 207.0410919189453 39.50582504272461 207.9822998046875 43.23061370849609 207.9822998046875 L 139.7691192626953 207.9822998046875 M 219.4369506835938 213.0438385009766 C 211.0164947509766 213.0439605712891 202.5966949462891 208.8762969970703 197.7858276367188 200.5434265136719 L 149.51611328125 116.9387969970703 C 139.9014129638672 100.2860870361328 151.9029083251953 79.46642303466797 171.1314086914063 79.43942260742188 L 267.9066162109375 79.30258941650391 C 267.9183654785156 79.30257415771484 267.9322204589844 79.30256652832031 267.9439697265625 79.30256652832031 C 287.1995849609375 79.30256652832031 299.2306213378906 100.1631011962891 289.5750427246094 116.8335037231445 L 241.0694885253906 200.5740051269531 C 236.2539825439453 208.8879699707031 227.8451080322266 213.0437164306641 219.4369506835938 213.0438385009766 Z M 139.7691192626953 212.9822998046875 L 43.23061370849609 212.9822998046875 C 24.00119781494141 212.9822998046875 11.97182273864746 192.1797180175781 21.56219863891602 175.5135040283203 L 69.8319091796875 91.63529968261719 C 74.63925933837891 83.28194427490234 83.06977844238281 79.10526275634766 91.50019073486328 79.10526275634766 C 99.93059539794922 79.10526275634766 108.3608856201172 83.28194427490234 113.1677780151367 91.63529968261719 L 161.4374847412109 175.5135040283203 C 171.0288238525391 192.1797180175781 158.9984893798828 212.9822998046875 139.7691192626953 212.9822998046875 Z" stroke="none" fill="#fff"/>
      </g>
    </g>
    <g id="Group_2-2" data-name="Group 2" transform="translate(274.979 286.184) rotate(180)">
      <g id="Union_1-6" data-name="Union 1" transform="translate(-18 -78.983)" fill="none">
        <path d="M197.786,200.543l-48.27-83.6a25,25,0,0,1,21.615-37.5l96.775-.137a25,25,0,0,1,21.668,37.531L241.07,200.574a25,25,0,0,1-43.284-.031ZM43.231,212.982a25,25,0,0,1-21.668-37.469l48.27-83.878a25,25,0,0,1,43.336,0l48.27,83.878a25,25,0,0,1-21.668,37.469Z" stroke="none"/>
        <path d="M 219.4368591308594 208.0438385009766 C 222.8647766113281 208.0437927246094 226.2337036132813 207.1820831298828 229.1794128417969 205.5518798828125 C 232.3325805664063 203.8068389892578 234.8772888183594 201.2888793945313 236.7429046630859 198.0678863525391 L 285.2483520507813 114.327507019043 C 287.1185302734375 111.0986328125 288.03662109375 107.6305084228516 287.9771118164063 104.0194625854492 C 287.9215698242188 100.6466293334961 286.9854431152344 97.29075622558594 285.2699584960938 94.31471252441406 C 283.5544128417969 91.33850860595703 281.1195373535156 88.84629821777344 278.2285766601563 87.10750579833984 C 275.1340026855469 85.24629974365234 271.6737365722656 84.30255126953125 267.9439392089844 84.30255126953125 L 267.9334106445313 84.30255126953125 L 267.9136962890625 84.30258941650391 L 171.1384124755859 84.43942260742188 C 167.4137420654297 84.44463348388672 163.9587860107422 85.39075469970703 160.8695373535156 87.25150299072266 C 157.9834136962891 88.98983764648438 155.5523681640625 91.47967529296875 153.8392333984375 94.45175933837891 C 152.1261596679688 97.42379760742188 151.1902008056641 100.7752151489258 151.132568359375 104.1437149047852 C 151.0708618164063 107.7494201660156 151.9838714599609 111.2131271362305 153.8462371826172 114.4387588500977 L 202.1159973144531 198.04345703125 C 203.9797821044922 201.2717590332031 206.5252838134766 203.7957611083984 209.6817779541016 205.5453796386719 C 212.6306915283203 207.1799163818359 216.0039520263672 208.0438842773438 219.4368591308594 208.0438385009766 M 139.7691192626953 207.9822998046875 C 143.4940338134766 207.9822998046875 146.9504852294922 207.0410003662109 150.0424957275391 205.1846313476563 C 152.9310760498047 203.4503326416016 155.3656616210938 200.9639282226563 157.0829467773438 197.9942626953125 C 158.8001556396484 195.0247192382813 159.7407836914063 191.6746673583984 159.8031616210938 188.3062591552734 C 159.8698577880859 184.7007141113281 158.9617004394531 181.2357177734375 157.1038665771484 178.0074157714844 L 108.8340759277344 94.12908935546875 C 106.9720764160156 90.89329528808594 104.4258651733398 88.36329650878906 101.2661972045898 86.60946655273438 C 98.31482696533203 84.97117614746094 94.93778228759766 84.10525512695313 91.50019836425781 84.10525512695313 C 88.06257629394531 84.10525512695313 84.68549346923828 84.97121429443359 81.73399353027344 86.60946655273438 C 78.57415771484375 88.36338043212891 76.02774047851563 90.89342498779297 74.16553497314453 94.12921142578125 L 25.89590644836426 178.0072937011719 C 24.03815650939941 181.2356719970703 23.1301155090332 184.7008361816406 23.19694900512695 188.3065490722656 C 23.25940704345703 191.6751251220703 24.20015716552734 195.0252990722656 25.91749000549316 197.9948883056641 C 27.63478088378906 200.9644165039063 30.06924057006836 203.4506683349609 32.95769882202148 205.1848449707031 C 36.04953002929688 207.0410919189453 39.50582504272461 207.9822998046875 43.23061370849609 207.9822998046875 L 139.7691192626953 207.9822998046875 M 219.4369506835938 213.0438385009766 C 211.0164947509766 213.0439605712891 202.5966949462891 208.8762969970703 197.7858276367188 200.5434265136719 L 149.51611328125 116.9387969970703 C 139.9014129638672 100.2860870361328 151.9029083251953 79.46642303466797 171.1314086914063 79.43942260742188 L 267.9066162109375 79.30258941650391 C 267.9183654785156 79.30257415771484 267.9322204589844 79.30256652832031 267.9439697265625 79.30256652832031 C 287.1995849609375 79.30256652832031 299.2306213378906 100.1631011962891 289.5750427246094 116.8335037231445 L 241.0694885253906 200.5740051269531 C 236.2539825439453 208.8879699707031 227.8451080322266 213.0437164306641 219.4369506835938 213.0438385009766 Z M 139.7691192626953 212.9822998046875 L 43.23061370849609 212.9822998046875 C 24.00119781494141 212.9822998046875 11.97182273864746 192.1797180175781 21.56219863891602 175.5135040283203 L 69.8319091796875 91.63529968261719 C 74.63925933837891 83.28194427490234 83.06977844238281 79.10526275634766 91.50019073486328 79.10526275634766 C 99.93059539794922 79.10526275634766 108.3608856201172 83.28194427490234 113.1677780151367 91.63529968261719 L 161.4374847412109 175.5135040283203 C 171.0288238525391 192.1797180175781 158.9984893798828 212.9822998046875 139.7691192626953 212.9822998046875 Z" stroke="none" fill="#fff"/>
      </g>
    </g>
    <g id="Group_4-2" data-name="Group 4" transform="translate(532.979 286.184) rotate(180)">
      <g id="Union_1-7" data-name="Union 1" transform="translate(-18 -78.983)" fill="none">
        <path d="M197.786,200.543l-48.27-83.6a25,25,0,0,1,21.615-37.5l96.775-.137a25,25,0,0,1,21.668,37.531L241.07,200.574a25,25,0,0,1-43.284-.031ZM43.231,212.982a25,25,0,0,1-21.668-37.469l48.27-83.878a25,25,0,0,1,43.336,0l48.27,83.878a25,25,0,0,1-21.668,37.469Z" stroke="none"/>
        <path d="M 219.4368591308594 208.0438385009766 C 222.8647766113281 208.0437927246094 226.2337036132813 207.1820831298828 229.1794128417969 205.5518798828125 C 232.3325805664063 203.8068389892578 234.8772888183594 201.2888793945313 236.7429046630859 198.0678863525391 L 285.2483520507813 114.327507019043 C 287.1185302734375 111.0986328125 288.03662109375 107.6305084228516 287.9771118164063 104.0194625854492 C 287.9215698242188 100.6466293334961 286.9854431152344 97.29075622558594 285.2699584960938 94.31471252441406 C 283.5544128417969 91.33850860595703 281.1195373535156 88.84629821777344 278.2285766601563 87.10750579833984 C 275.1340026855469 85.24629974365234 271.6737365722656 84.30255126953125 267.9439392089844 84.30255126953125 L 267.9334106445313 84.30255126953125 L 267.9136962890625 84.30258941650391 L 171.1384124755859 84.43942260742188 C 167.4137420654297 84.44463348388672 163.9587860107422 85.39075469970703 160.8695373535156 87.25150299072266 C 157.9834136962891 88.98983764648438 155.5523681640625 91.47967529296875 153.8392333984375 94.45175933837891 C 152.1261596679688 97.42379760742188 151.1902008056641 100.7752151489258 151.132568359375 104.1437149047852 C 151.0708618164063 107.7494201660156 151.9838714599609 111.2131271362305 153.8462371826172 114.4387588500977 L 202.1159973144531 198.04345703125 C 203.9797821044922 201.2717590332031 206.5252838134766 203.7957611083984 209.6817779541016 205.5453796386719 C 212.6306915283203 207.1799163818359 216.0039520263672 208.0438842773438 219.4368591308594 208.0438385009766 M 139.7691192626953 207.9822998046875 C 143.4940338134766 207.9822998046875 146.9504852294922 207.0410003662109 150.0424957275391 205.1846313476563 C 152.9310760498047 203.4503326416016 155.3656616210938 200.9639282226563 157.0829467773438 197.9942626953125 C 158.8001556396484 195.0247192382813 159.7407836914063 191.6746673583984 159.8031616210938 188.3062591552734 C 159.8698577880859 184.7007141113281 158.9617004394531 181.2357177734375 157.1038665771484 178.0074157714844 L 108.8340759277344 94.12908935546875 C 106.9720764160156 90.89329528808594 104.4258651733398 88.36329650878906 101.2661972045898 86.60946655273438 C 98.31482696533203 84.97117614746094 94.93778228759766 84.10525512695313 91.50019836425781 84.10525512695313 C 88.06257629394531 84.10525512695313 84.68549346923828 84.97121429443359 81.73399353027344 86.60946655273438 C 78.57415771484375 88.36338043212891 76.02774047851563 90.89342498779297 74.16553497314453 94.12921142578125 L 25.89590644836426 178.0072937011719 C 24.03815650939941 181.2356719970703 23.1301155090332 184.7008361816406 23.19694900512695 188.3065490722656 C 23.25940704345703 191.6751251220703 24.20015716552734 195.0252990722656 25.91749000549316 197.9948883056641 C 27.63478088378906 200.9644165039063 30.06924057006836 203.4506683349609 32.95769882202148 205.1848449707031 C 36.04953002929688 207.0410919189453 39.50582504272461 207.9822998046875 43.23061370849609 207.9822998046875 L 139.7691192626953 207.9822998046875 M 219.4369506835938 213.0438385009766 C 211.0164947509766 213.0439605712891 202.5966949462891 208.8762969970703 197.7858276367188 200.5434265136719 L 149.51611328125 116.9387969970703 C 139.9014129638672 100.2860870361328 151.9029083251953 79.46642303466797 171.1314086914063 79.43942260742188 L 267.9066162109375 79.30258941650391 C 267.9183654785156 79.30257415771484 267.9322204589844 79.30256652832031 267.9439697265625 79.30256652832031 C 287.1995849609375 79.30256652832031 299.2306213378906 100.1631011962891 289.5750427246094 116.8335037231445 L 241.0694885253906 200.5740051269531 C 236.2539825439453 208.8879699707031 227.8451080322266 213.0437164306641 219.4369506835938 213.0438385009766 Z M 139.7691192626953 212.9822998046875 L 43.23061370849609 212.9822998046875 C 24.00119781494141 212.9822998046875 11.97182273864746 192.1797180175781 21.56219863891602 175.5135040283203 L 69.8319091796875 91.63529968261719 C 74.63925933837891 83.28194427490234 83.06977844238281 79.10526275634766 91.50019073486328 79.10526275634766 C 99.93059539794922 79.10526275634766 108.3608856201172 83.28194427490234 113.1677780151367 91.63529968261719 L 161.4374847412109 175.5135040283203 C 171.0288238525391 192.1797180175781 158.9984893798828 212.9822998046875 139.7691192626953 212.9822998046875 Z" stroke="none" fill="#fff"/>
      </g>
    </g>
    <g id="Group_3-2" data-name="Group 3" transform="translate(532.979 134.061) rotate(180)">
      <g id="Union_1-8" data-name="Union 1" transform="translate(-18 -78.983)" fill="none">
        <path d="M197.786,200.543l-48.27-83.6a25,25,0,0,1,21.615-37.5l96.775-.137a25,25,0,0,1,21.668,37.531L241.07,200.574a25,25,0,0,1-43.284-.031ZM43.231,212.982a25,25,0,0,1-21.668-37.469l48.27-83.878a25,25,0,0,1,43.336,0l48.27,83.878a25,25,0,0,1-21.668,37.469Z" stroke="none"/>
        <path d="M 219.4368591308594 208.0438385009766 C 222.8647766113281 208.0437927246094 226.2337036132813 207.1820831298828 229.1794128417969 205.5518798828125 C 232.3325805664063 203.8068389892578 234.8772888183594 201.2888793945313 236.7429046630859 198.0678863525391 L 285.2483520507813 114.327507019043 C 287.1185302734375 111.0986328125 288.03662109375 107.6305084228516 287.9771118164063 104.0194625854492 C 287.9215698242188 100.6466293334961 286.9854431152344 97.29075622558594 285.2699584960938 94.31471252441406 C 283.5544128417969 91.33850860595703 281.1195373535156 88.84629821777344 278.2285766601563 87.10750579833984 C 275.1340026855469 85.24629974365234 271.6737365722656 84.30255126953125 267.9439392089844 84.30255126953125 L 267.9334106445313 84.30255126953125 L 267.9136962890625 84.30258941650391 L 171.1384124755859 84.43942260742188 C 167.4137420654297 84.44463348388672 163.9587860107422 85.39075469970703 160.8695373535156 87.25150299072266 C 157.9834136962891 88.98983764648438 155.5523681640625 91.47967529296875 153.8392333984375 94.45175933837891 C 152.1261596679688 97.42379760742188 151.1902008056641 100.7752151489258 151.132568359375 104.1437149047852 C 151.0708618164063 107.7494201660156 151.9838714599609 111.2131271362305 153.8462371826172 114.4387588500977 L 202.1159973144531 198.04345703125 C 203.9797821044922 201.2717590332031 206.5252838134766 203.7957611083984 209.6817779541016 205.5453796386719 C 212.6306915283203 207.1799163818359 216.0039520263672 208.0438842773438 219.4368591308594 208.0438385009766 M 139.7691192626953 207.9822998046875 C 143.4940338134766 207.9822998046875 146.9504852294922 207.0410003662109 150.0424957275391 205.1846313476563 C 152.9310760498047 203.4503326416016 155.3656616210938 200.9639282226563 157.0829467773438 197.9942626953125 C 158.8001556396484 195.0247192382813 159.7407836914063 191.6746673583984 159.8031616210938 188.3062591552734 C 159.8698577880859 184.7007141113281 158.9617004394531 181.2357177734375 157.1038665771484 178.0074157714844 L 108.8340759277344 94.12908935546875 C 106.9720764160156 90.89329528808594 104.4258651733398 88.36329650878906 101.2661972045898 86.60946655273438 C 98.31482696533203 84.97117614746094 94.93778228759766 84.10525512695313 91.50019836425781 84.10525512695313 C 88.06257629394531 84.10525512695313 84.68549346923828 84.97121429443359 81.73399353027344 86.60946655273438 C 78.57415771484375 88.36338043212891 76.02774047851563 90.89342498779297 74.16553497314453 94.12921142578125 L 25.89590644836426 178.0072937011719 C 24.03815650939941 181.2356719970703 23.1301155090332 184.7008361816406 23.19694900512695 188.3065490722656 C 23.25940704345703 191.6751251220703 24.20015716552734 195.0252990722656 25.91749000549316 197.9948883056641 C 27.63478088378906 200.9644165039063 30.06924057006836 203.4506683349609 32.95769882202148 205.1848449707031 C 36.04953002929688 207.0410919189453 39.50582504272461 207.9822998046875 43.23061370849609 207.9822998046875 L 139.7691192626953 207.9822998046875 M 219.4369506835938 213.0438385009766 C 211.0164947509766 213.0439605712891 202.5966949462891 208.8762969970703 197.7858276367188 200.5434265136719 L 149.51611328125 116.9387969970703 C 139.9014129638672 100.2860870361328 151.9029083251953 79.46642303466797 171.1314086914063 79.43942260742188 L 267.9066162109375 79.30258941650391 C 267.9183654785156 79.30257415771484 267.9322204589844 79.30256652832031 267.9439697265625 79.30256652832031 C 287.1995849609375 79.30256652832031 299.2306213378906 100.1631011962891 289.5750427246094 116.8335037231445 L 241.0694885253906 200.5740051269531 C 236.2539825439453 208.8879699707031 227.8451080322266 213.0437164306641 219.4369506835938 213.0438385009766 Z M 139.7691192626953 212.9822998046875 L 43.23061370849609 212.9822998046875 C 24.00119781494141 212.9822998046875 11.97182273864746 192.1797180175781 21.56219863891602 175.5135040283203 L 69.8319091796875 91.63529968261719 C 74.63925933837891 83.28194427490234 83.06977844238281 79.10526275634766 91.50019073486328 79.10526275634766 C 99.93059539794922 79.10526275634766 108.3608856201172 83.28194427490234 113.1677780151367 91.63529968261719 L 161.4374847412109 175.5135040283203 C 171.0288238525391 192.1797180175781 158.9984893798828 212.9822998046875 139.7691192626953 212.9822998046875 Z" stroke="none" fill="#fff"/>
      </g>
    </g>
  </g>
</svg>
