<svg xmlns="http://www.w3.org/2000/svg" width="586" height="576" viewBox="0 0 586 576">
  <g id="Group_12" data-name="Group 12" transform="translate(-1334)">
    <g id="Group_8" data-name="Group 8">
      <g id="Ellipse_1" data-name="Ellipse 1" transform="translate(1787)" fill="none" stroke="#fff" stroke-width="5">
        <circle cx="66.5" cy="66.5" r="66.5" stroke="none"/>
        <circle cx="66.5" cy="66.5" r="64" fill="none"/>
      </g>
      <g id="Ellipse_2" data-name="Ellipse 2" transform="translate(1769 281) rotate(180)" fill="none" stroke="#fff" stroke-width="5">
        <circle cx="66.5" cy="66.5" r="66.5" stroke="none"/>
        <circle cx="66.5" cy="66.5" r="64" fill="none"/>
      </g>
      <g id="Rectangle_1" data-name="Rectangle 1" transform="translate(1636)" fill="none" stroke="#fff" stroke-width="5">
        <rect width="133" height="133" rx="41" stroke="none"/>
        <rect x="2.5" y="2.5" width="128" height="128" rx="38.5" fill="none"/>
      </g>
      <g id="Rectangle_2" data-name="Rectangle 2" transform="translate(1920 281) rotate(180)" fill="none" stroke="#fff" stroke-width="5">
        <rect width="133" height="133" rx="41" stroke="none"/>
        <rect x="2.5" y="2.5" width="128" height="128" rx="38.5" fill="none"/>
      </g>
    </g>
    <g id="Group_11" data-name="Group 11" transform="translate(0 295)">
      <g id="Ellipse_1-2" data-name="Ellipse 1" transform="translate(1787)" fill="none" stroke="#fff" stroke-width="5">
        <circle cx="66.5" cy="66.5" r="66.5" stroke="none"/>
        <circle cx="66.5" cy="66.5" r="64" fill="none"/>
      </g>
      <g id="Ellipse_2-2" data-name="Ellipse 2" transform="translate(1769 281) rotate(180)" fill="none" stroke="#fff" stroke-width="5">
        <circle cx="66.5" cy="66.5" r="66.5" stroke="none"/>
        <circle cx="66.5" cy="66.5" r="64" fill="none"/>
      </g>
      <g id="Rectangle_1-2" data-name="Rectangle 1" transform="translate(1636)" fill="none" stroke="#fff" stroke-width="5">
        <rect width="133" height="133" rx="41" stroke="none"/>
        <rect x="2.5" y="2.5" width="128" height="128" rx="38.5" fill="none"/>
      </g>
      <g id="Rectangle_2-2" data-name="Rectangle 2" transform="translate(1920 281) rotate(180)" fill="none" stroke="#fff" stroke-width="5">
        <rect width="133" height="133" rx="41" stroke="none"/>
        <rect x="2.5" y="2.5" width="128" height="128" rx="38.5" fill="none"/>
      </g>
    </g>
    <g id="Group_9" data-name="Group 9" transform="translate(-302)">
      <g id="Ellipse_1-3" data-name="Ellipse 1" transform="translate(1787)" fill="none" stroke="#fff" stroke-width="5">
        <circle cx="66.5" cy="66.5" r="66.5" stroke="none"/>
        <circle cx="66.5" cy="66.5" r="64" fill="none"/>
      </g>
      <g id="Ellipse_2-3" data-name="Ellipse 2" transform="translate(1769 281) rotate(180)" fill="none" stroke="#fff" stroke-width="5">
        <circle cx="66.5" cy="66.5" r="66.5" stroke="none"/>
        <circle cx="66.5" cy="66.5" r="64" fill="none"/>
      </g>
      <g id="Rectangle_1-3" data-name="Rectangle 1" transform="translate(1636)" fill="none" stroke="#fff" stroke-width="5">
        <rect width="133" height="133" rx="41" stroke="none"/>
        <rect x="2.5" y="2.5" width="128" height="128" rx="38.5" fill="none"/>
      </g>
      <g id="Rectangle_2-3" data-name="Rectangle 2" transform="translate(1920 281) rotate(180)" fill="none" stroke="#fff" stroke-width="5">
        <rect width="133" height="133" rx="41" stroke="none"/>
        <rect x="2.5" y="2.5" width="128" height="128" rx="38.5" fill="none"/>
      </g>
    </g>
    <g id="Group_10" data-name="Group 10" transform="translate(-302 295)">
      <g id="Ellipse_1-4" data-name="Ellipse 1" transform="translate(1787)" fill="none" stroke="#fff" stroke-width="5">
        <circle cx="66.5" cy="66.5" r="66.5" stroke="none"/>
        <circle cx="66.5" cy="66.5" r="64" fill="none"/>
      </g>
      <g id="Ellipse_2-4" data-name="Ellipse 2" transform="translate(1769 281) rotate(180)" fill="none" stroke="#fff" stroke-width="5">
        <circle cx="66.5" cy="66.5" r="66.5" stroke="none"/>
        <circle cx="66.5" cy="66.5" r="64" fill="none"/>
      </g>
      <g id="Rectangle_1-4" data-name="Rectangle 1" transform="translate(1636)" fill="none" stroke="#fff" stroke-width="5">
        <rect width="133" height="133" rx="41" stroke="none"/>
        <rect x="2.5" y="2.5" width="128" height="128" rx="38.5" fill="none"/>
      </g>
      <g id="Rectangle_2-4" data-name="Rectangle 2" transform="translate(1920 281) rotate(180)" fill="none" stroke="#fff" stroke-width="5">
        <rect width="133" height="133" rx="41" stroke="none"/>
        <rect x="2.5" y="2.5" width="128" height="128" rx="38.5" fill="none"/>
      </g>
    </g>
  </g>
</svg>
